<svg width="39" height="37" viewBox="0 0 39 37" fill="none" xmlns="http://www.w3.org/2000/svg">
<path d="M34.707 13.6477L34.6827 13.626C34.6808 13.6247 34.6792 13.6231 34.6782 13.6212L19.5007 0L4.32324 13.6209C4.32149 13.6225 4.31875 13.6256 4.31875 13.6256L4.29371 13.6474C1.97287 15.7419 0.498738 18.4725 0.105654 21.4052C-0.28743 24.3379 0.423092 27.3044 2.12426 29.8331C3.82544 32.3619 6.41964 34.3077 9.49449 35.3612C12.5693 36.4147 15.9483 36.5157 19.0944 35.6477C19.3591 35.5751 19.642 35.5751 19.9068 35.6477C23.0526 36.5153 26.4314 36.4144 29.506 35.3607C32.5807 34.307 35.1746 32.3613 36.8757 29.8328C38.5767 27.3042 39.2873 24.3379 38.8944 21.4054C38.5015 18.4728 37.0276 15.7422 34.707 13.6477ZM9.72013 22.6298C9.64625 22.6961 9.58765 22.7749 9.54769 22.8615C9.50772 22.948 9.48714 23.0408 9.48716 23.1346C9.51416 25.5386 10.2712 27.8904 11.6768 29.9371C11.7087 29.9835 11.7235 30.0379 11.719 30.0922C11.7145 30.1465 11.6909 30.1982 11.6516 30.2399C11.6123 30.2816 11.5594 30.311 11.5004 30.324C11.4414 30.337 11.3793 30.333 11.323 30.3124C10.2663 29.9135 9.30631 29.3336 8.49678 28.6053C6.83777 27.1162 5.90511 25.097 5.9036 22.9912C5.90209 20.8855 6.83187 18.8652 8.48876 17.3743L19.5007 7.49273L30.512 17.3743C32.1692 18.865 33.0993 20.8853 33.0977 22.9912C33.0963 25.097 32.1635 27.1162 30.5043 28.6053C29.6948 29.3336 28.7349 29.9135 27.6784 30.3124C27.6219 30.333 27.5598 30.337 27.5008 30.324C27.4418 30.311 27.3889 30.2814 27.3495 30.2399C27.3103 30.1982 27.2866 30.1465 27.2821 30.092C27.2776 30.0377 27.2923 29.9833 27.3243 29.9369C28.7302 27.8904 29.4876 25.5386 29.5151 23.1346C29.5151 23.0408 29.4943 22.948 29.4541 22.8613C29.4139 22.7746 29.3551 22.696 29.2811 22.6296L24.0726 17.6717C24.0207 17.6329 23.9555 17.6116 23.8878 17.6116C23.8204 17.6116 23.755 17.6329 23.7032 17.6717C23.6513 17.7104 23.6164 17.7644 23.6043 17.824C23.5921 17.8837 23.6037 17.945 23.637 17.9978C25.6598 21.283 23.9204 26.0017 21.0196 28.6053L21.0043 28.6191C20.6039 28.9745 20.0634 29.1738 19.5003 29.1736C18.937 29.1734 18.3967 28.9738 17.9966 28.6182L17.9825 28.6053C15.0806 26.0017 13.3421 21.2835 15.3652 17.9985C15.3985 17.9457 15.4101 17.8844 15.398 17.8247C15.3859 17.7651 15.3509 17.7111 15.299 17.6724C15.2472 17.6336 15.1819 17.6123 15.1143 17.6123C15.0468 17.6123 14.9815 17.6336 14.9296 17.6724L9.72013 22.6298Z" fill="#F53838"/>
</svg>
